<svg width="522" height="481" viewBox="0 0 522 481" fill="none" xmlns="http://www.w3.org/2000/svg">
<path d="M233.58 174.09C234.81 166.22 240.67 159.92 241.16 151.8C234.06 153.03 229.43 158.36 224.04 162.34C221.15 164.47 218.64 167.08 215.12 168.25C203.39 176.56 194.55 187.89 184.17 197.61C181.51 200.1 179.08 202.85 176.35 205.27C168.38 212.33 164.11 211.7 158.09 202.68C153.51 195.81 151.44 195.53 148.11 202.41C139.89 219.37 131.6 236.35 127.12 254.83C119.67 267.7 114.79 267.95 105.32 255.96C103.46 252.93 102.42 248.51 97.94 248.86C93.3 249.21 93.25 254 92.03 257.2C85.43 274.56 80.24 292.39 75.19 310.25C74.01 314.41 72.88 318.59 71.39 322.64C69.75 327.11 67.52 331.65 61.79 331.2C56.42 330.78 55.49 326.26 54.49 321.85C49.3 299 46.49 276.05 50.51 252.67C51.18 248.75 51.56 244.76 51.38 240.76C52.94 230.45 56.56 220.76 60.24 211.09C64.18 197.75 73.31 187.4 80.53 175.96C82.01 174.68 83.37 173.24 85.05 172.2C107.62 147.06 135.6 130.76 167.91 121.56C180.64 117.94 193.66 115.79 206.77 114.2C209.44 113.88 212.03 113.57 214.34 112.18C215.25 111.33 215.69 110.27 215.65 108.99C215.48 108.14 215.33 107.31 215.13 106.47C210.31 101.32 203.54 102.14 197.55 100.84C187.36 98.6301 184.12 94.5701 185.2 84.1501C186.56 71.0801 184.22 68.8301 171.25 70.5301C152.67 72.9601 135.46 80.4001 117.51 85.1301C115.27 85.7201 113.13 86.72 110.85 87.17C102.7 88.79 99.44 85.8001 100.47 77.7401C100.68 76.0901 101.23 74.5 101.47 72.86C102.05 68.84 105.85 64.3301 101.36 60.9001C96.72 57.3501 91.25 58.5101 86.21 60.7501C73.78 66.2501 61.33 71.7201 48.88 77.1801C38.2 81.8601 28.06 87.45 18.26 93.72C15.45 95.52 12.5 97.0401 9.45997 98.3701C6.63997 99.6101 3.52997 100.58 1.20997 97.79C-1.03003 95.1 0.259966 92.12 1.70997 89.41C3.11997 86.77 4.72998 84.2301 6.56998 81.8801C21.36 63.0901 35.92 44.0801 56.12 30.5101C109.5 -12.0999 179.63 -9.64996 229.21 37.61C236.16 44.24 243 51.04 248.43 59.04C249 59.8 249.57 60.5701 250.15 61.3201C251.85 63.9301 252.91 66.9001 254.72 69.4501C255.19 70.1301 255.63 70.8401 256.08 71.5301C256.67 72.5801 257.18 73.6801 257.72 74.7601C258.13 75.4501 258.48 76.1701 258.83 76.8901C259.41 77.9801 259.95 79.0901 260.49 80.2101C260.89 80.9901 261.21 81.79 261.51 82.61C267.52 96.68 269.45 97.2101 281.4 88.5201C285.16 85.7901 288.31 82.2501 292.48 80.0801C293.88 79.2901 295.39 78.69 296.83 77.97C297.46 77.56 298.1 77.1701 298.72 76.7401C299.28 76.2301 299.87 75.74 300.44 75.22C300.72 74.94 301.02 74.69 301.31 74.42C301.91 73.86 302.57 73.3901 303.26 72.9501C304 72.5001 304.76 72.1201 305.54 71.7701C312.37 67.3101 319.39 63.2101 326.94 60.0901C327.71 59.6601 328.54 59.33 329.37 59.04C332.34 58.4 334.98 56.95 337.61 55.48C338.39 55.07 339.22 54.7701 340.06 54.5201C344.46 53.7501 348.69 52.4101 352.85 50.7801C353.78 50.4501 354.71 50.22 355.68 50.04C371.57 47.09 387.54 47.7801 403.17 50.8301C424.8 55.0501 443.77 65.6501 460.57 79.5901C480.07 95.7601 494.5 116.02 504.93 139.11C510.75 155 518.47 170.29 520.36 187.45C520.58 189.43 521.17 191.38 520.99 193.39C520.35 200.81 515.18 203.34 509.37 198.54C502.45 192.83 496.06 186.42 490.4 179.43C474.37 159.63 454.66 143.75 435.29 127.54C431.47 124.34 426.56 122.86 421.46 122.54C416.6 125.16 418.06 130 417.51 134.07C415.89 145.9 409.81 149.5 399.1 144.21C375.42 132.5 350 126.2 324.6 119.87C318.83 118.43 312.22 116.28 307.39 122.65C307.71 122.99 307.8 123.38 307.66 123.82C309.06 129.17 313.87 130.12 318.03 132.15C359.91 152.54 393.37 181.34 407.03 227.52C416.46 259.42 413.69 291.94 405.88 323.98C402.1 339.49 397.67 354.84 388 368C385.66 371.19 383.41 375.29 378.64 373.83C373.85 372.36 372.96 367.87 372.47 363.37C371.63 355.65 373.59 348.16 374.17 340.57C374.67 333.92 372.82 329.5 365.32 329.09C356.1 328.59 354.13 323.06 354.61 314.75C355.54 298.54 355.39 282.29 354.68 266.17C355.52 279.77 354.94 293.26 354.96 306.74C354.96 309.39 356.01 313.03 351.55 313.7C351.57 296.92 351.66 280.13 351.52 263.35C351.49 260.29 352.99 256.66 349.52 254.26C346.41 253.12 344.67 255.41 342.53 256.94C335.23 262.13 329.45 260.16 327.25 251.3C325.98 246.18 325.21 240.88 324.48 235.61C320.82 209.14 310.39 185.26 296.42 162.75C295.36 161.04 294 159.58 292.59 158.17C289.3 154.88 286.04 150.66 280.81 152.28C276.51 153.61 276.38 158.44 275.24 162.18C274.07 166 273.27 169.9 272.55 173.84C261.4 209.8 254.75 246.56 252.73 284.15C250.02 292.75 251.57 301.6 251.16 310.34C251 350.14 250.18 389.97 257.03 429.44C258.39 437.29 259.94 445.09 261.55 452.88C263.29 463.95 262.98 474.13 250.27 478.95C236.69 480.59 223.04 480.23 209.49 479.35C197.13 478.55 191.5 471.53 191.28 458.85C190.68 425.01 193.66 391.4 196.85 357.73C200.82 315.77 206.91 274.26 217.16 233.37C221.19 217.27 225.29 201.19 230.83 185.51C232.13 181.83 234.23 178.26 233.63 174.08L233.58 174.09Z" fill="#338F49"/>
</svg>
